# xmcd
#
# Track frame offsets:
#	150
#	24719
#	43314
#	79523
#	98208
#	116297
#	143467
#	169433
#	185550
#	202475
#	230280
#
# Disc length: 3335 seconds
#
# Revision: 2
# Processed by: cddbd v1.5.2PL0 Copyright (c) Steve Scherf et al.
# Submitted via: EasyCDDAExtractor 6.2.0.3
#
DISCID=960d050b
DTITLE=Various Artist - Night
DYEAR=2002
DGENRE=Country
TTITLE0=Tom Jessen's Timestore Outfit - Eulogy
TTITLE1=Tom Jessen's Dimestore Outfit - River
TTITLE2=Tom Jessen's Dimestore Outfit - Exile
TTITLE3=Tom Jessen's Dimestore Outfit - Go Easy On My Eyes
TTITLE4=Tom Jessen's Dimestore Outfit - Sunday Night Black
TTITLE5=Tom Jessen's Dimestore Outfit - All Those Treasure Daggers
TTITLE6=Tom Jessen's Dimestore Outfit - Let Me Let
TTITLE7=Tom Jessen's Dimestore Outfit - Something As Subtle As Time
TTITLE8=Tom Jessen's Dimestore Outfit - Black Sheep
TTITLE9=Tom Jessen's Dimestore Outfit - Let The Night Be Long
TTITLE10=Tom Jessen's Dimestore Outfit - Let It Go
EXTD=
EXTT0=
EXTT1=
EXTT2=
EXTT3=
EXTT4=
EXTT5=
EXTT6=
EXTT7=
EXTT8=
EXTT9=
EXTT10=
PLAYORDER=
